<svg xmlns="http://www.w3.org/2000/svg" width="32" height="32" viewBox="0 0 32 32" fill="none">
  <g fill="#1c2747">
    <path d="M15.17,16.57c.51-.24.84-.78.82-1.33v-.04c-.02-.51-.31-.96-.78-1.2l-7.22-4L31.41,1.44c.33-.07.58-.38.58-.71h0c0-.4-.33-.73-.73-.73H2C1.2,0,0,1.24,0,2v27.99c0,.76,1.2,2,2,2h4c.8,0,2-1.24,2-2v-10l7.17-3.42Z"/>
    <path d="M10.06,31.08l1.93-4.73c.18-.38.71-.49,1.04-.22l4.71,4.73c.49.38.2,1.13-.42,1.13h-6.64c-.51.02-.84-.47-.62-.91Z"/>
    <path d="M24.06,31.08l1.93-4.73c.18-.38.71-.49,1.04-.22l4.71,4.73c.49.38.2,1.13-.42,1.13h-6.64c-.51.02-.84-.47-.62-.91Z"/>
    <path d="M23.92,26.9l-1.93,4.73c-.18.38-.71.49-1.04.22l-4.71-4.73c-.49-.38-.2-1.13.42-1.13h6.64c.51-.02.84.47.62.91Z"/>
  </g>
</svg>
