<?xml version="1.0" standalone="no"?>
<!DOCTYPE svg PUBLIC "-//W3C//DTD SVG 20010904//EN"
 "http://www.w3.org/TR/2001/REC-SVG-20010904/DTD/svg10.dtd">
<svg version="1.0" xmlns="http://www.w3.org/2000/svg"
 width="700.000000pt" height="700.000000pt" viewBox="0 0 700.000000 700.000000"
 preserveAspectRatio="xMidYMid meet">
  <g fill="#000">
    <path d="M331.85,362.48c11.16-5.25,18.38-17.06,17.94-29.09v-.88c-.44-11.16-6.78-21-17.06-26.25l-157.94-87.5L687.11,31.5c7.22-1.53,12.69-8.31,12.69-15.53h0c0-8.75-7.22-15.97-15.97-15.97H43.75C26.25,0,0,27.13,0,43.75v612.3c0,16.63,26.25,43.75,43.75,43.75h87.5c17.5,0,43.75-27.13,43.75-43.75v-218.76l156.85-74.81Z"/>
    <path d="M220.07,679.89l42.22-103.47c3.94-8.31,15.53-10.72,22.75-4.81l103.03,103.47c10.72,8.31,4.38,24.72-9.19,24.72h-145.25c-11.16.44-18.38-10.28-13.56-19.91Z"/>
    <path d="M526.33,679.89l42.22-103.47c3.94-8.31,15.53-10.72,22.75-4.81l103.03,103.47c10.72,8.31,4.38,24.72-9.19,24.72h-145.25c-11.16.44-18.38-10.28-13.56-19.91Z"/>
    <path d="M523.26,588.45l-42.22,103.47c-3.94,8.31-15.53,10.72-22.75,4.81l-103.03-103.47c-10.72-8.31-4.38-24.72,9.19-24.72h145.25c11.16-.44,18.38,10.28,13.56,19.91Z"/>
  </g>
</svg>
